<svg width="58" height="43" fill="none" xmlns="http://www.w3.org/2000/svg"><path d="M45.45 42.65c-4.9 0-8.45-1.75-10.65-5.25-1-1.5-1.8-3.35-2.4-5.55-.6-2.2-.9-4.5-.9-6.9 0-5.2 1.3-9.9 3.9-14.1 2.7-4.2 6.65-7.5 11.85-9.9l1.35 2.7c-2.9 1.2-5.45 3.05-7.65 5.55-2.1 2.5-3.35 5.05-3.75 7.65-.3 1.2-.45 2.35-.45 3.45 0 1 .15 1.95.45 2.85 2.2-2.4 5.1-3.6 8.7-3.6 3.5 0 6.35 1.05 8.55 3.15 2.2 2 3.3 4.8 3.3 8.4 0 3.4-1.15 6.2-3.45 8.4-2.3 2.1-5.25 3.15-8.85 3.15Zm-30.9 0c-4.9 0-8.45-1.75-10.65-5.25-1-1.5-1.8-3.35-2.4-5.55-.6-2.2-.9-4.5-.9-6.9 0-5.2 1.3-9.9 3.9-14.1 2.7-4.2 6.65-7.5 11.85-9.9l1.35 2.7c-2.9 1.2-5.45 3.05-7.65 5.55-2.1 2.5-3.35 5.05-3.75 7.65-.3 1.2-.45 2.35-.45 3.45 0 1 .15 1.95.45 2.85 2.2-2.4 5.1-3.6 8.7-3.6 3.5 0 6.35 1.05 8.55 3.15 2.2 2 3.3 4.8 3.3 8.4 0 3.4-1.15 6.2-3.45 8.4-2.3 2.1-5.25 3.15-8.85 3.15Z" fill="#0AD574"/></svg>